<svg id="visual" viewBox="0 0 1920 1080" width="1920" height="1080" xmlns="http://www.w3.org/2000/svg" xmlns:xlink="http://www.w3.org/1999/xlink" version="1.1"><g stroke-width="1" stroke-linejoin="bevel"><path d="M1038.7 568L831.3 713L1067.7 719Z" fill="#353b48" stroke="#718093"></path><path d="M1038.7 568L850.3 528L831.3 713Z" fill="#3e5069" stroke="#718093"></path><path d="M831.3 713L834.3 892L1067.7 719Z" fill="#42678c" stroke="#718093"></path><path d="M834.3 892L1102.7 890L1067.7 719Z" fill="#416d95" stroke="#718093"></path><path d="M1319 574L1094.7 379L1038.7 568Z" fill="#415c7b" stroke="#718093"></path><path d="M850.3 528L676 518L831.3 713Z" fill="#353b48" stroke="#718093"></path><path d="M831.3 713L629 905L834.3 892Z" fill="#405672" stroke="#718093"></path><path d="M1319 574L1038.7 568L1067.7 719Z" fill="#3d4b61" stroke="#718093"></path><path d="M1038.7 568L1094.7 379L850.3 528Z" fill="#426183" stroke="#718093"></path><path d="M850.3 528L827.3 351L676 518Z" fill="#416d95" stroke="#718093"></path><path d="M1094.7 379L827.3 351L850.3 528Z" fill="#3d4b61" stroke="#718093"></path><path d="M676 518L600 732L831.3 713Z" fill="#415c7b" stroke="#718093"></path><path d="M1102.7 890L1301 738L1067.7 719Z" fill="#405672" stroke="#718093"></path><path d="M1301 738L1319 574L1067.7 719Z" fill="#415c7b" stroke="#718093"></path><path d="M600 732L629 905L831.3 713Z" fill="#416d95" stroke="#718093"></path><path d="M1065.7 1080L1249 938L1102.7 890Z" fill="#3d4b61" stroke="#718093"></path><path d="M1065.7 1080L1102.7 890L834.3 892Z" fill="#3e5069" stroke="#718093"></path><path d="M1102.7 890L1249 938L1301 738Z" fill="#416d95" stroke="#718093"></path><path d="M827.3 351L625 393L676 518Z" fill="#405672" stroke="#718093"></path><path d="M676 518L455.7 681L600 732Z" fill="#3a4558" stroke="#718093"></path><path d="M667 1080L840.3 1080L834.3 892Z" fill="#3d4b61" stroke="#718093"></path><path d="M840.3 1080L1065.7 1080L834.3 892Z" fill="#353b48" stroke="#718093"></path><path d="M1319 574L1316 394L1094.7 379Z" fill="#426183" stroke="#718093"></path><path d="M1094.7 379L871.3 141L827.3 351Z" fill="#40739e" stroke="#718093"></path><path d="M600 732L460.7 890L629 905Z" fill="#426183" stroke="#718093"></path><path d="M396.7 533L455.7 681L676 518Z" fill="#384050" stroke="#718093"></path><path d="M629 905L667 1080L834.3 892Z" fill="#384050" stroke="#718093"></path><path d="M412.7 1080L667 1080L629 905Z" fill="#42678c" stroke="#718093"></path><path d="M827.3 351L606 174L625 393Z" fill="#415c7b" stroke="#718093"></path><path d="M1097.7 140L871.3 141L1094.7 379Z" fill="#3a4558" stroke="#718093"></path><path d="M1065.7 1080L1291 1080L1249 938Z" fill="#42678c" stroke="#718093"></path><path d="M1521.3 870L1499.3 727L1301 738Z" fill="#353b48" stroke="#718093"></path><path d="M1301 738L1499.3 727L1319 574Z" fill="#3d4b61" stroke="#718093"></path><path d="M455.7 681L460.7 890L600 732Z" fill="#415c7b" stroke="#718093"></path><path d="M1264 155L1097.7 140L1094.7 379Z" fill="#415c7b" stroke="#718093"></path><path d="M1521.3 870L1301 738L1249 938Z" fill="#415c7b" stroke="#718093"></path><path d="M1319 574L1500.3 531L1316 394Z" fill="#415c7b" stroke="#718093"></path><path d="M1499.3 727L1500.3 531L1319 574Z" fill="#384050" stroke="#718093"></path><path d="M1316 394L1264 155L1094.7 379Z" fill="#3d4b61" stroke="#718093"></path><path d="M454.7 350L396.7 533L625 393Z" fill="#426183" stroke="#718093"></path><path d="M625 393L396.7 533L676 518Z" fill="#384050" stroke="#718093"></path><path d="M455.7 681L217.3 863L460.7 890Z" fill="#405672" stroke="#718093"></path><path d="M606 174L454.7 350L625 393Z" fill="#405672" stroke="#718093"></path><path d="M1455.3 328L1264 155L1316 394Z" fill="#42678c" stroke="#718093"></path><path d="M871.3 141L606 174L827.3 351Z" fill="#3a4558" stroke="#718093"></path><path d="M1500.3 531L1455.3 328L1316 394Z" fill="#415c7b" stroke="#718093"></path><path d="M1463.3 1080L1521.3 870L1249 938Z" fill="#3e5069" stroke="#718093"></path><path d="M1499.3 727L1714.7 737L1500.3 531Z" fill="#405672" stroke="#718093"></path><path d="M1291 1080L1463.3 1080L1249 938Z" fill="#42678c" stroke="#718093"></path><path d="M1076.7 0L871.3 141L1097.7 140Z" fill="#416d95" stroke="#718093"></path><path d="M1076.7 0L868.3 0L871.3 141Z" fill="#3e5069" stroke="#718093"></path><path d="M871.3 141L618 0L606 174Z" fill="#405672" stroke="#718093"></path><path d="M1289 0L1076.7 0L1097.7 140Z" fill="#415c7b" stroke="#718093"></path><path d="M217.3 863L412.7 1080L460.7 890Z" fill="#3d4b61" stroke="#718093"></path><path d="M460.7 890L412.7 1080L629 905Z" fill="#42678c" stroke="#718093"></path><path d="M618 0L462.7 168L606 174Z" fill="#415c7b" stroke="#718093"></path><path d="M606 174L462.7 168L454.7 350Z" fill="#415c7b" stroke="#718093"></path><path d="M198.3 564L455.7 681L396.7 533Z" fill="#3d4b61" stroke="#718093"></path><path d="M1455.3 328L1482.3 158L1264 155Z" fill="#416d95" stroke="#718093"></path><path d="M1264 155L1289 0L1097.7 140Z" fill="#3d4b61" stroke="#718093"></path><path d="M1705.7 176L1482.3 158L1455.3 328Z" fill="#353b48" stroke="#718093"></path><path d="M1707.7 399L1455.3 328L1500.3 531Z" fill="#353b48" stroke="#718093"></path><path d="M868.3 0L618 0L871.3 141Z" fill="#426183" stroke="#718093"></path><path d="M1482.3 158L1289 0L1264 155Z" fill="#42678c" stroke="#718093"></path><path d="M198.3 564L197.3 750L455.7 681Z" fill="#384050" stroke="#718093"></path><path d="M198.3 564L396.7 533L182.3 396Z" fill="#415c7b" stroke="#718093"></path><path d="M182.3 396L396.7 533L454.7 350Z" fill="#416d95" stroke="#718093"></path><path d="M197.3 750L217.3 863L455.7 681Z" fill="#3a4558" stroke="#718093"></path><path d="M1729.7 928L1714.7 737L1521.3 870Z" fill="#415c7b" stroke="#718093"></path><path d="M1521.3 870L1714.7 737L1499.3 727Z" fill="#384050" stroke="#718093"></path><path d="M1714.7 737L1716.7 513L1500.3 531Z" fill="#3e5069" stroke="#718093"></path><path d="M1716.7 513L1707.7 399L1500.3 531Z" fill="#3e5069" stroke="#718093"></path><path d="M199.3 173L182.3 396L454.7 350Z" fill="#40739e" stroke="#718093"></path><path d="M198.3 564L0 730L197.3 750Z" fill="#416d95" stroke="#718093"></path><path d="M199.3 173L454.7 350L462.7 168Z" fill="#384050" stroke="#718093"></path><path d="M1694.7 1080L1729.7 928L1521.3 870Z" fill="#415c7b" stroke="#718093"></path><path d="M1714.7 737L1920 712L1716.7 513Z" fill="#3e5069" stroke="#718093"></path><path d="M0 909L212.3 1080L217.3 863Z" fill="#426183" stroke="#718093"></path><path d="M217.3 863L212.3 1080L412.7 1080Z" fill="#426183" stroke="#718093"></path><path d="M1463.3 1080L1694.7 1080L1521.3 870Z" fill="#3d4b61" stroke="#718093"></path><path d="M618 0L406.7 0L462.7 168Z" fill="#415c7b" stroke="#718093"></path><path d="M1705.7 176L1510.3 0L1482.3 158Z" fill="#426183" stroke="#718093"></path><path d="M1482.3 158L1510.3 0L1289 0Z" fill="#384050" stroke="#718093"></path><path d="M406.7 0L199.3 173L462.7 168Z" fill="#42678c" stroke="#718093"></path><path d="M1920 346L1705.7 176L1707.7 399Z" fill="#3e5069" stroke="#718093"></path><path d="M1707.7 399L1705.7 176L1455.3 328Z" fill="#42678c" stroke="#718093"></path><path d="M0 514L0 730L198.3 564Z" fill="#3d4b61" stroke="#718093"></path><path d="M197.3 750L0 909L217.3 863Z" fill="#416d95" stroke="#718093"></path><path d="M0 514L198.3 564L182.3 396Z" fill="#353b48" stroke="#718093"></path><path d="M0 350L0 514L182.3 396Z" fill="#353b48" stroke="#718093"></path><path d="M1920 868L1920 712L1714.7 737Z" fill="#3e5069" stroke="#718093"></path><path d="M1716.7 513L1920 502L1707.7 399Z" fill="#353b48" stroke="#718093"></path><path d="M1920 868L1714.7 737L1729.7 928Z" fill="#3a4558" stroke="#718093"></path><path d="M0 730L0 909L197.3 750Z" fill="#353b48" stroke="#718093"></path><path d="M1920 712L1920 502L1716.7 513Z" fill="#42678c" stroke="#718093"></path><path d="M1920 1080L1920 868L1729.7 928Z" fill="#40739e" stroke="#718093"></path><path d="M406.7 0L206.3 0L199.3 173Z" fill="#3a4558" stroke="#718093"></path><path d="M199.3 173L0 350L182.3 396Z" fill="#415c7b" stroke="#718093"></path><path d="M0 159L0 350L199.3 173Z" fill="#40739e" stroke="#718093"></path><path d="M1920 159L1701.7 0L1705.7 176Z" fill="#40739e" stroke="#718093"></path><path d="M1705.7 176L1701.7 0L1510.3 0Z" fill="#405672" stroke="#718093"></path><path d="M1920 502L1920 346L1707.7 399Z" fill="#416d95" stroke="#718093"></path><path d="M0 909L0 1080L212.3 1080Z" fill="#384050" stroke="#718093"></path><path d="M1694.7 1080L1920 1080L1729.7 928Z" fill="#405672" stroke="#718093"></path><path d="M206.3 0L0 159L199.3 173Z" fill="#415c7b" stroke="#718093"></path><path d="M1920 346L1920 159L1705.7 176Z" fill="#3a4558" stroke="#718093"></path><path d="M206.3 0L0 0L0 159Z" fill="#353b48" stroke="#718093"></path><path d="M1920 159L1920 0L1701.7 0Z" fill="#416d95" stroke="#718093"></path></g></svg>